<svg width="15" height="19" viewBox="0 0 15 19" fill="none" xmlns="http://www.w3.org/2000/svg">
<g clip-path="url(#clip0_1228_348)" filter="url(#filter0_b_1228_348)">
<path d="M14.6856 14.6119C14.4163 15.267 14.0975 15.87 13.7282 16.4244C13.2248 17.1801 12.8125 17.7033 12.4949 17.9938C12.0024 18.4706 11.4748 18.7148 10.9098 18.7287C10.5042 18.7287 10.015 18.6072 9.44563 18.3607C8.87436 18.1153 8.34937 17.9938 7.86934 17.9938C7.36589 17.9938 6.82596 18.1153 6.24842 18.3607C5.67001 18.6072 5.20405 18.7357 4.84779 18.7484C4.30599 18.7727 3.76594 18.5215 3.22688 17.9938C2.88282 17.6778 2.45248 17.1362 1.93694 16.3688C1.38381 15.5494 0.929064 14.5992 0.572805 13.5159C0.191265 12.3458 0 11.2127 0 10.1158C0 8.85922 0.257878 7.77546 0.774403 6.86727C1.18035 6.13778 1.72039 5.56233 2.39631 5.13989C3.07222 4.71745 3.80254 4.50218 4.58904 4.48841C5.01938 4.48841 5.58372 4.62857 6.28503 4.90402C6.98435 5.1804 7.43339 5.32056 7.63026 5.32056C7.77744 5.32056 8.27627 5.15667 9.1219 4.82995C9.92159 4.52695 10.5965 4.40149 11.1494 4.45091C12.6477 4.57822 13.7733 5.20008 14.5218 6.32041C13.1819 7.17525 12.5191 8.37255 12.5322 9.9085C12.5443 11.1049 12.9565 12.1004 13.7667 12.8909C14.1338 13.2578 14.5438 13.5414 15 13.7428C14.9011 14.0448 14.7966 14.3342 14.6856 14.6119ZM11.2495 0.375107C11.2495 1.31282 10.9241 2.18836 10.2755 2.99875C9.49289 3.96215 8.54624 4.51885 7.51968 4.431C7.5066 4.3185 7.49901 4.20011 7.49901 4.07569C7.49901 3.17548 7.87121 2.21209 8.53217 1.42438C8.86216 1.02555 9.28184 0.693928 9.79078 0.429387C10.2986 0.168793 10.779 0.0246789 11.2308 0C11.244 0.125358 11.2495 0.250723 11.2495 0.375095V0.375107Z" fill="white"/>
</g>
<defs>
<filter id="filter0_b_1228_348" x="-4" y="-4" width="23" height="26.75" filterUnits="userSpaceOnUse" color-interpolation-filters="sRGB">
<feFlood flood-opacity="0" result="BackgroundImageFix"/>
<feGaussianBlur in="BackgroundImageFix" stdDeviation="2"/>
<feComposite in2="SourceAlpha" operator="in" result="effect1_backgroundBlur_1228_348"/>
<feBlend mode="normal" in="SourceGraphic" in2="effect1_backgroundBlur_1228_348" result="shape"/>
</filter>
<clipPath id="clip0_1228_348">
<rect width="15" height="18.75" fill="white"/>
</clipPath>
</defs>
</svg>
