<svg width="51" height="51" viewBox="0 0 51 51" fill="none" xmlns="http://www.w3.org/2000/svg">
<path d="M36.3385 2.12578C38.6408 2.14585 40.5075 3.01162 41.9932 4.4312C43.7459 6.10574 44.9148 8.59108 45.2719 11.3077C45.986 16.7412 43.5458 22.9359 36.7098 25.5215L37.4432 27.1998C44.1315 24.6701 47.1714 18.9835 47.3286 13.5313C49.1391 14.5847 50.208 16.1535 50.7018 18.0329C51.2992 20.3059 50.9862 23.0292 49.8773 25.5791C47.6595 30.6791 42.4337 34.9683 35.439 34.0704L35.1716 35.8667C40.2608 36.5201 44.5774 34.7445 47.6774 31.8893C48.5277 33.4612 48.4601 35.0169 47.746 36.5726C46.8624 38.4972 44.878 40.3777 42.2313 41.768C37.3206 44.3476 30.2582 45.2146 24.1683 42.2618C24.7347 40.227 24.4449 37.8923 22.9854 35.5426C20.6169 31.7298 16.6463 30.7121 13.7683 31.7922C12.3292 32.3324 11.1525 33.3971 10.6524 34.8126C10.1522 36.2279 10.3566 37.944 11.4216 39.6898C12.6523 41.7071 14.9827 42.3922 16.7668 41.8438C17.6587 41.5695 18.4585 40.929 18.7354 40.014C19.0121 39.0989 18.7502 38.0397 17.9987 36.9785L16.3723 37.9752C16.9186 38.7464 16.946 39.2432 16.8615 39.5231C16.7767 39.803 16.5653 39.9976 16.1575 40.1229C15.3417 40.3737 13.9169 40.1082 13.1164 38.796C12.2624 37.3962 12.1965 36.2578 12.507 35.3789C12.8174 34.5 13.5339 33.8323 14.4982 33.4704C16.427 32.7466 19.3104 33.2501 21.2971 36.4484C22.7597 38.8031 22.7961 40.8472 21.9979 42.5979L21.7045 43.022C21.725 43.0346 21.7459 43.0462 21.7664 43.0585C21.7397 43.1066 21.7129 43.1562 21.6851 43.2039C21.4822 43.5495 21.2451 43.8831 20.9744 44.2004C20.964 44.213 20.9525 44.2246 20.9418 44.237C20.9006 44.2845 20.8574 44.3323 20.8146 44.3793C19.6144 45.7032 17.857 46.7424 15.8802 47.3149C13.3499 48.0475 10.4989 48.0076 8.07434 46.9514C5.64967 45.895 3.5964 43.852 2.579 40.3231C2.23242 39.1205 2.04917 38.0183 2.00537 36.9968C2.00433 36.9563 2.00297 36.9162 2.00224 36.8756C1.99317 36.3813 2.01142 35.8824 2.06096 35.3822C2.06482 35.3427 2.06972 35.3033 2.074 35.2639C2.07733 35.2378 2.08026 35.2112 2.0837 35.1851C2.42735 32.685 3.73397 30.7104 5.66574 28.9386C8.75654 26.1041 13.5607 23.9328 18.468 21.753C23.3754 19.5731 28.3878 17.381 31.9092 14.225C35.2136 11.2632 37.1162 7.32437 36.1136 2.12559C36.1887 2.12462 36.2642 2.1252 36.3385 2.12578Z" fill="white"/>
</svg>
