<svg width="58" height="57" viewBox="0 0 58 57" fill="none" xmlns="http://www.w3.org/2000/svg">
<g clip-path="url(#clip0_1083_944)">
<path d="M41.0241 2.64516C43.5681 2.66743 45.6308 3.62823 47.2725 5.20365C49.2092 7.062 50.5008 9.82015 50.8954 12.835C51.6845 18.8649 48.9881 25.7396 41.4343 28.609L42.2448 30.4716C49.6353 27.6642 52.9944 21.3534 53.1681 15.3027C55.1688 16.4717 56.3498 18.2128 56.8955 20.2984C57.5556 22.821 57.2098 25.8431 55.9844 28.6729C53.5338 34.3328 47.7592 39.0928 40.0301 38.0964L39.7347 40.0899C45.3581 40.815 50.128 38.8445 53.5536 35.6758C54.4931 37.4203 54.4184 39.1468 53.6293 40.8733C52.6529 43.0092 50.4602 45.096 47.5356 46.6389C42.1092 49.5017 34.3053 50.4639 27.576 47.187C28.2018 44.9288 27.8817 42.3379 26.2689 39.7302C23.6516 35.4988 19.2642 34.3695 16.0839 35.5681C14.4938 36.1676 13.1936 37.3491 12.6409 38.92C12.0882 40.4907 12.3141 42.3952 13.4909 44.3326C14.8508 46.5714 17.4259 47.3317 19.3973 46.7231C20.3829 46.4186 21.2666 45.7078 21.5726 44.6924C21.8783 43.6768 21.5889 42.5014 20.7586 41.3237L18.9614 42.4298C19.5651 43.2857 19.5953 43.837 19.5019 44.1476C19.4082 44.4583 19.1746 44.6742 18.724 44.8133C17.8226 45.0916 16.2482 44.797 15.3637 43.3407C14.42 41.7873 14.3472 40.5239 14.6903 39.5485C15.0332 38.5732 15.825 37.8322 16.8906 37.4306C19.0218 36.6273 22.208 37.186 24.4033 40.7354C26.0195 43.3486 26.0597 45.617 25.1777 47.5599L24.8534 48.0306C24.8761 48.0446 24.8992 48.0575 24.9219 48.0711C24.8924 48.1245 24.8628 48.1795 24.832 48.2324C24.6078 48.616 24.3459 48.9863 24.0467 49.3384C24.0352 49.3524 24.0225 49.3653 24.0107 49.3789C23.9652 49.4316 23.9174 49.4848 23.8701 49.5369C22.5439 51.0061 20.602 52.1595 18.4176 52.7947C15.6217 53.6077 12.4713 53.5635 9.79216 52.3913C7.1129 51.219 4.84403 48.9517 3.7198 45.0355C3.33683 43.7008 3.13435 42.4776 3.08594 41.344C3.08479 41.2991 3.08329 41.2545 3.08249 41.2096C3.07246 40.6609 3.09262 40.1073 3.14737 39.5522C3.15163 39.5084 3.15705 39.4646 3.16177 39.4209C3.16546 39.3919 3.16869 39.3624 3.17249 39.3335C3.55223 36.5589 4.99604 34.3675 7.13065 32.4013C10.546 29.2556 15.8546 26.846 21.2772 24.4268C26.6998 22.0077 32.2386 19.5749 36.1296 16.0725C39.781 12.7856 41.8835 8.4144 40.7756 2.64494C40.8586 2.64387 40.942 2.64451 41.0241 2.64516Z" fill="white"/>
</g>
<defs>
<clipPath id="clip0_1083_944">
<rect width="56.355" height="56.5983" rx="5" transform="matrix(-1 0 0 1 57.225 0.286133)" fill="white"/>
</clipPath>
</defs>
</svg>
