<svg width="58" height="57" viewBox="0 0 58 57" fill="none" xmlns="http://www.w3.org/2000/svg">
<g clip-path="url(#clip0_1083_1357)">
<path d="M41.0241 2.64516C43.5682 2.66743 45.6309 3.62823 47.2726 5.20365C49.2093 7.062 50.5009 9.82015 50.8955 12.835C51.6846 18.8649 48.9882 25.7396 41.4344 28.609L42.2448 30.4716C49.6354 27.6642 52.9945 21.3534 53.1682 15.3027C55.1689 16.4717 56.3499 18.2128 56.8956 20.2984C57.5557 22.821 57.2099 25.8431 55.9845 28.6729C53.5339 34.3328 47.7593 39.0928 40.0301 38.0964L39.7348 40.0899C45.3582 40.815 50.1281 38.8445 53.5537 35.6758C54.4932 37.4203 54.4185 39.1468 53.6294 40.8733C52.653 43.0092 50.4603 45.096 47.5357 46.6389C42.1093 49.5017 34.3054 50.4639 27.5761 47.187C28.2019 44.9288 27.8817 42.3379 26.269 39.7302C23.6517 35.4988 19.2643 34.3695 16.084 35.5681C14.4939 36.1676 13.1936 37.3491 12.641 38.92C12.0883 40.4907 12.3142 42.3952 13.491 44.3326C14.8509 46.5714 17.426 47.3317 19.3974 46.7231C20.383 46.4186 21.2667 45.7078 21.5727 44.6924C21.8784 43.6768 21.589 42.5014 20.7587 41.3237L18.9615 42.4298C19.5652 43.2857 19.5954 43.837 19.502 44.1476C19.4083 44.4583 19.1747 44.6742 18.7241 44.8133C17.8226 45.0916 16.2483 44.797 15.3637 43.3407C14.4201 41.7873 14.3473 40.5239 14.6904 39.5485C15.0333 38.5732 15.8251 37.8322 16.8906 37.4306C19.0219 36.6273 22.2081 37.186 24.4034 40.7354C26.0196 43.3486 26.0598 45.617 25.1778 47.5599L24.8535 48.0306C24.8762 48.0446 24.8993 48.0575 24.922 48.0711C24.8925 48.1245 24.8629 48.1795 24.8321 48.2324C24.6079 48.616 24.346 48.9863 24.0468 49.3384C24.0353 49.3524 24.0226 49.3653 24.0108 49.3789C23.9653 49.4316 23.9175 49.4848 23.8702 49.5369C22.544 51.0061 20.6021 52.1595 18.4177 52.7947C15.6218 53.6077 12.4714 53.5635 9.79225 52.3913C7.11299 51.219 4.84412 48.9517 3.71989 45.0355C3.33693 43.7008 3.13444 42.4776 3.08603 41.344C3.08488 41.2991 3.08338 41.2545 3.08258 41.2096C3.07255 40.6609 3.09272 40.1073 3.14746 39.5522C3.15172 39.5084 3.15714 39.4646 3.16187 39.4209C3.16555 39.3919 3.16878 39.3624 3.17258 39.3335C3.55232 36.5589 4.99614 34.3675 7.13074 32.4013C10.5461 29.2556 15.8547 26.846 21.2773 24.4268C26.6999 22.0077 32.2387 19.5749 36.1297 16.0725C39.7811 12.7856 41.8835 8.4144 40.7757 2.64494C40.8587 2.64387 40.9421 2.64451 41.0241 2.64516Z" fill="white"/>
</g>
<defs>
<clipPath id="clip0_1083_1357">
<rect width="56.355" height="56.5983" rx="5" transform="matrix(-1 0 0 1 57.2251 0.286133)" fill="white"/>
</clipPath>
</defs>
</svg>
