<svg width="58" height="57" viewBox="0 0 58 57" fill="none" xmlns="http://www.w3.org/2000/svg">
<g clip-path="url(#clip0_1228_279)">
<path d="M41.0241 2.6454C43.5682 2.66767 45.6309 3.62848 47.2726 5.20389C49.2093 7.06224 50.5009 9.8204 50.8955 12.8352C51.6846 18.8652 48.9882 25.7399 41.4344 28.6093L42.2448 30.4718C49.6354 27.6644 52.9945 21.3536 53.1682 15.3029C55.1689 16.4719 56.3499 18.213 56.8956 20.2987C57.5557 22.8212 57.2099 25.8434 55.9845 28.6732C53.5339 34.333 47.7593 39.093 40.0301 38.0966L39.7348 40.0901C45.3582 40.8152 50.1281 38.8447 53.5537 35.6761C54.4932 37.4206 54.4185 39.147 53.6294 40.8735C52.653 43.0094 50.4603 45.0963 47.5357 46.6392C42.1093 49.5019 34.3054 50.4641 27.5761 47.1872C28.2019 44.9291 27.8817 42.3381 26.269 39.7305C23.6517 35.4991 19.2643 34.3697 16.084 35.5684C14.4939 36.1678 13.1936 37.3494 12.641 38.9203C12.0883 40.4909 12.3142 42.3954 13.491 44.3329C14.8509 46.5716 17.426 47.3319 19.3974 46.7233C20.383 46.4189 21.2667 45.7081 21.5727 44.6926C21.8784 43.6771 21.589 42.5016 20.7587 41.3239L18.9615 42.4301C19.5652 43.2859 19.5954 43.8372 19.502 44.1478C19.4083 44.4585 19.1747 44.6744 18.7241 44.8135C17.8227 45.0919 16.2483 44.7972 15.3637 43.341C14.4201 41.7875 14.3473 40.5242 14.6904 39.5488C15.0333 38.5734 15.8251 37.8324 16.8906 37.4308C19.0219 36.6275 22.2081 37.1863 24.4034 40.7357C26.0196 43.3488 26.0598 45.6173 25.1778 47.5602L24.8535 48.0309C24.8762 48.0448 24.8993 48.0578 24.922 48.0713C24.8925 48.1248 24.8629 48.1797 24.8321 48.2327C24.6079 48.6162 24.346 48.9865 24.0468 49.3386C24.0353 49.3526 24.0226 49.3655 24.0108 49.3792C23.9653 49.4319 23.9175 49.485 23.8702 49.5371C22.544 51.0063 20.6021 52.1597 18.4177 52.795C15.6218 53.608 12.4714 53.5637 9.79225 52.3915C7.11299 51.2192 4.84412 48.952 3.71989 45.0357C3.33693 43.701 3.13444 42.4779 3.08603 41.3443C3.08488 41.2993 3.08339 41.2548 3.08258 41.2098C3.07255 40.6611 3.09272 40.1075 3.14746 39.5524C3.15172 39.5086 3.15714 39.4648 3.16187 39.4212C3.16555 39.3921 3.16878 39.3626 3.17258 39.3337C3.55232 36.5592 4.99614 34.3678 7.13074 32.4015C10.5461 29.2558 15.8547 26.8463 21.2773 24.4271C26.6999 22.0079 32.2387 19.5752 36.1297 16.0728C39.7811 12.7859 41.8835 8.41464 40.7757 2.64519C40.8587 2.64411 40.9421 2.64476 41.0241 2.6454Z" fill="white"/>
</g>
<defs>
<clipPath id="clip0_1228_279">
<rect width="56.355" height="56.5983" rx="5" transform="matrix(-1 0 0 1 57.2251 0.286133)" fill="white"/>
</clipPath>
</defs>
</svg>
