<svg width="250" height="334" viewBox="0 0 250 334" fill="none" xmlns="http://www.w3.org/2000/svg">
<g clip-path="url(#clip0_1228_201)">
<path d="M106.735 20.6548L144.318 27.1854L178.56 20.6548V39.5209H106.735V20.6548Z" fill="white"/>
<path d="M49.8279 57.6425C49.8279 55.2991 50.9002 53.0794 52.7042 51.6882L100.787 14.6092C103.036 12.875 105.994 12.6276 108.416 13.9713V13.9713C113.052 16.5431 113.523 23.3941 109.3 26.8309L85.7403 46.0059L60.2751 63.5398C55.7374 66.6642 49.8279 63.3283 49.8279 57.6425V57.6425Z" fill="#A9A9A9"/>
<path d="M188.642 20.1558C190.44 19.6134 192.39 19.9807 193.932 21.1523L243.229 58.6124C245.182 60.0959 246.235 62.5744 245.977 65.0755V65.0755C245.448 70.198 239.976 72.8003 235.913 69.8619L210.882 51.7613L186.685 31.4608C182.746 28.1564 183.883 21.5917 188.642 20.1558V20.1558Z" fill="#A9A9A9"/>
<path d="M276.49 228.241H260.759V149.41C260.759 77.4442 208.765 18.8948 144.857 18.8948C80.9496 18.8948 28.9567 77.4442 28.9567 149.41V228.241H13.2256V149.41C13.2256 67.3656 72.2743 0.617676 144.857 0.617676C217.438 0.617676 276.49 67.3656 276.49 149.41V228.241Z" fill="#FEBED1"/>
<path d="M206.136 185.86V259.428C206.136 275.31 217.218 288.186 230.888 288.186V157.102C217.218 157.102 206.136 169.977 206.136 185.86Z" fill="#A4A9AC"/>
<path d="M230.888 157.102V288.186C244.559 288.186 255.641 275.31 255.641 259.428V185.86C255.641 169.977 244.559 157.102 230.888 157.102Z" fill="#A4A8AA"/>
<path d="M83.5797 185.86V259.428C83.5797 275.31 72.4975 288.186 58.8271 288.186V157.102C72.4975 157.102 83.5797 169.977 83.5797 185.86Z" fill="#A4A9AC"/>
<path d="M58.8272 157.102V288.186C45.1569 288.186 34.0747 275.31 34.0747 259.428V185.86C34.0747 169.977 45.1569 157.102 58.8272 157.102Z" fill="#A4A8AA"/>
<path d="M34.0749 183.815V261.471C15.6177 261.472 0.655273 244.088 0.655273 222.644C0.655273 201.2 15.6177 183.815 34.0749 183.815Z" fill="#FEBED1"/>
<path d="M157.837 326.165L157.704 320.072C223.186 318.145 255.509 255.806 255.827 255.175L260.348 258.269C260.013 258.923 226.195 324.154 157.837 326.165Z" fill="#FEBED1"/>
<path d="M153.603 333.116C161.053 333.116 167.092 328.332 167.092 322.431C167.092 316.529 161.053 311.745 153.603 311.745C146.153 311.745 140.114 316.529 140.114 322.431C140.114 328.332 146.153 333.116 153.603 333.116Z" fill="#FEBED1"/>
</g>
<defs>
<clipPath id="clip0_1228_201">
<rect width="288.405" height="332.515" fill="white" transform="translate(0.655273 0.609375)"/>
</clipPath>
</defs>
</svg>
