<svg width="261" height="282" viewBox="0 0 261 282" fill="none" xmlns="http://www.w3.org/2000/svg">
<g clip-path="url(#clip0_1086_1876)">
<path d="M96 17L130.012 22.5385L161 17V33H96V17Z" fill="white"/>
<path d="M44.4999 48.3086C44.4999 46.3564 45.437 44.5228 47.0193 43.3794L90.7136 11.8029C92.6921 10.3731 95.3078 10.1813 97.4736 11.3073V11.3073C101.672 13.4903 102.174 19.2995 98.4109 22.1695L76.9998 38.5L53.8789 53.4188C49.832 56.0301 44.4999 53.1249 44.4999 48.3086V48.3086Z" fill="#A9A9A9"/>
<path d="M170.179 16.5615C171.773 16.1108 173.486 16.4076 174.835 17.3685L219.613 49.2552C221.328 50.4758 222.247 52.5284 222.017 54.6201V54.6201C221.538 58.966 216.609 61.243 212.989 58.7903L190.25 43.3812L168.289 26.1144C164.778 23.3541 165.882 17.7765 170.179 16.5615V16.5615Z" fill="#A9A9A9"/>
<path d="M249.624 193.05H235.388V126.195C235.388 65.162 188.335 15.5074 130.5 15.5074C72.6647 15.5074 25.6122 65.162 25.6122 126.195V193.05H11.376V126.195C11.376 56.6146 64.8137 0.00690842 130.499 0.00690842C196.184 0.00690842 249.624 56.6146 249.624 126.195V193.05Z" fill="#FEBED1"/>
<path d="M185.955 157.107V219.499C185.955 232.969 195.984 243.888 208.356 243.888V132.718C195.984 132.718 185.955 143.637 185.955 157.107Z" fill="#A4A9AC"/>
<path d="M208.355 132.718V243.889C220.727 243.889 230.756 232.969 230.756 219.5V157.107C230.756 143.637 220.727 132.718 208.355 132.718Z" fill="#A4A8AA"/>
<path d="M230.756 155.374V221.232C247.459 221.232 261 206.489 261 188.303C261 170.117 247.459 155.374 230.756 155.374Z" fill="#FEBED1"/>
<path d="M75.045 157.107V219.499C75.045 232.969 65.0159 243.888 52.6445 243.888V132.718C65.0159 132.718 75.045 143.637 75.045 157.107Z" fill="#A4A9AC"/>
<path d="M52.6446 132.718V243.889C40.2732 243.889 30.2441 232.969 30.2441 219.5V157.107C30.2441 143.637 40.2732 132.718 52.6446 132.718Z" fill="#A4A8AA"/>
<path d="M30.244 155.374V221.232C13.5407 221.233 0 206.49 0 188.304C0 170.117 13.5407 155.374 30.244 155.374Z" fill="#FEBED1"/>
<path d="M142.246 276.097L142.125 270.93C201.386 269.296 230.637 216.427 230.925 215.892L235.016 218.516C234.713 219.071 204.108 274.392 142.246 276.097Z" fill="#FEBED1"/>
<path d="M251.007 199.362C253.229 194.379 251.32 188.379 246.744 185.96C242.166 183.54 236.656 185.619 234.434 190.601C232.801 194.264 233.414 198.464 235.664 201.401L228.453 217.574L235.242 221.163L242.453 204.989C245.963 205.098 249.374 203.025 251.007 199.362Z" fill="#FEBED1"/>
<path d="M138.414 281.993C145.156 281.993 150.622 277.935 150.622 272.93C150.622 267.926 145.156 263.868 138.414 263.868C131.672 263.868 126.207 267.926 126.207 272.93C126.207 277.935 131.672 281.993 138.414 281.993Z" fill="#FEBED1"/>
</g>
<defs>
<clipPath id="clip0_1086_1876">
<rect width="261" height="282" fill="white"/>
</clipPath>
</defs>
</svg>
