<svg width="250" height="334" viewBox="0 0 250 334" fill="none" xmlns="http://www.w3.org/2000/svg">
<g clip-path="url(#clip0_1083_866)">
<path d="M106.735 20.6545L144.318 27.1851L178.56 20.6545V39.5207H106.735V20.6545Z" fill="white"/>
<path d="M49.8277 57.6425C49.8277 55.2991 50.9 53.0794 52.704 51.6882L100.787 14.6092C103.036 12.875 105.994 12.6276 108.416 13.9713V13.9713C113.052 16.5431 113.523 23.3941 109.3 26.8309L85.74 46.0059L60.2748 63.5398C55.7372 66.6642 49.8277 63.3283 49.8277 57.6425V57.6425Z" fill="#A9A9A9"/>
<path d="M188.642 20.1561C190.44 19.6136 192.39 19.981 193.932 21.1526L243.229 58.6127C245.182 60.0962 246.235 62.5746 245.977 65.0758V65.0758C245.448 70.1983 239.976 72.8005 235.913 69.8622L210.882 51.7616L186.685 31.4611C182.746 28.1566 183.883 21.592 188.642 20.1561V20.1561Z" fill="#A9A9A9"/>
<path d="M276.49 228.241H260.759V149.41C260.759 77.4439 208.765 18.8945 144.857 18.8945C80.9492 18.8945 28.9563 77.4439 28.9563 149.41V228.241H13.2252V149.41C13.2252 67.3654 72.2739 0.617432 144.856 0.617432C217.438 0.617432 276.49 67.3654 276.49 149.41V228.241Z" fill="#FEBED1"/>
<path d="M206.135 185.86V259.428C206.135 275.31 217.218 288.186 230.888 288.186V157.102C217.218 157.102 206.135 169.977 206.135 185.86Z" fill="#A4A9AC"/>
<path d="M230.888 157.102V288.186C244.558 288.186 255.64 275.31 255.64 259.428V185.86C255.64 169.977 244.558 157.102 230.888 157.102Z" fill="#A4A8AA"/>
<path d="M83.5797 185.86V259.428C83.5797 275.31 72.4975 288.186 58.8271 288.186V157.102C72.4975 157.102 83.5797 169.977 83.5797 185.86Z" fill="#A4A9AC"/>
<path d="M58.8272 157.102V288.186C45.1569 288.186 34.0747 275.31 34.0747 259.428V185.86C34.0747 169.977 45.1569 157.102 58.8272 157.102Z" fill="#A4A8AA"/>
<path d="M34.0746 183.815V261.471C15.6174 261.472 0.655029 244.088 0.655029 222.644C0.655029 201.2 15.6174 183.815 34.0746 183.815Z" fill="#FEBED1"/>
<path d="M157.837 326.165L157.704 320.072C223.186 318.145 255.509 255.806 255.827 255.175L260.348 258.269C260.013 258.923 226.195 324.153 157.837 326.165Z" fill="#FEBED1"/>
<path d="M153.603 333.116C161.052 333.116 167.092 328.332 167.092 322.43C167.092 316.529 161.052 311.745 153.603 311.745C146.153 311.745 140.114 316.529 140.114 322.43C140.114 328.332 146.153 333.116 153.603 333.116Z" fill="#FEBED1"/>
</g>
<defs>
<clipPath id="clip0_1083_866">
<rect width="288.405" height="332.515" fill="white" transform="translate(0.655029 0.609375)"/>
</clipPath>
</defs>
</svg>
