<svg width="6" height="7" viewBox="0 0 6 7" fill="none" xmlns="http://www.w3.org/2000/svg">
<g clip-path="url(#clip0_1086_1578)">
<path d="M0.694751 3.5C0.694751 3.56153 0.729905 3.64941 0.762551 3.71094C1.65904 5.37206 2.71874 6.40919 3.7885 6.40919C4.67744 6.40919 5.30524 5.69726 5.30524 4.74804C5.30524 4.20312 5.02901 3.76368 4.60463 3.5C5.02649 3.23633 5.30524 2.79394 5.30524 2.25195C5.30524 1.30274 4.67744 0.590813 3.7885 0.590813C2.71874 0.590813 1.64648 1.61914 0.762551 3.28613C0.729905 3.35058 0.694751 3.43848 0.694751 3.5Z" fill="#F5DDEF"/>
</g>
<defs>
<clipPath id="clip0_1086_1578">
<rect width="7" height="6" fill="white" transform="matrix(0 1 -1 0 6 0)"/>
</clipPath>
</defs>
</svg>
