<svg width="3" height="4" viewBox="0 0 3 4" fill="none" xmlns="http://www.w3.org/2000/svg">
<g clip-path="url(#clip0_1083_158)">
<path d="M1.85813 2.30231C1.87223 2.29118 1.88538 2.26532 1.89298 2.24494C2.09523 1.69036 2.12197 1.20238 1.90904 0.899153C1.73209 0.647176 1.44397 0.597996 1.22643 0.769691C1.10154 0.868255 1.05582 1.02604 1.07986 1.19403C0.935459 1.12214 0.778589 1.12315 0.654378 1.22118C0.436839 1.39288 0.398646 1.6996 0.575592 1.95158C0.788531 2.25481 1.23764 2.37275 1.79562 2.32178C1.81689 2.31937 1.84403 2.31344 1.85813 2.30231Z" fill="#ECC5D0"/>
</g>
<defs>
<clipPath id="clip0_1083_158">
<rect width="2.04371" height="2.0782" fill="white" transform="matrix(0.784967 -0.619538 0.574689 0.818372 0 1.43158)"/>
</clipPath>
</defs>
</svg>
