<svg width="6" height="6" viewBox="0 0 6 6" fill="none" xmlns="http://www.w3.org/2000/svg">
<g clip-path="url(#clip0_1086_1761)">
<path d="M2.99994 0.694759C3.05267 0.694759 3.128 0.729912 3.18074 0.762559C4.60456 1.65904 5.49353 2.71875 5.49353 3.78851C5.49353 4.67745 4.8833 5.30524 4.06968 5.30524C3.60262 5.30524 3.22594 5.02902 2.99994 4.60464C2.77393 5.0265 2.39474 5.30524 1.93018 5.30524C1.11657 5.30524 0.506348 4.67745 0.506348 3.78851C0.506348 2.71875 1.38777 1.64649 2.81662 0.762559C2.87186 0.729912 2.9472 0.694759 2.99994 0.694759Z" fill="#F5DDEF"/>
</g>
<defs>
<clipPath id="clip0_1086_1761">
<rect width="6" height="6" fill="white" transform="matrix(1 0 0 -1 0 6)"/>
</clipPath>
</defs>
</svg>
