<svg width="6" height="7" viewBox="0 0 6 7" fill="none" xmlns="http://www.w3.org/2000/svg">
<g clip-path="url(#clip0_1086_1765)">
<path d="M0.69469 3.5C0.69469 3.56153 0.729844 3.64941 0.76249 3.71094C1.65898 5.37206 2.71868 6.40919 3.78844 6.40919C4.67738 6.40919 5.30518 5.69726 5.30518 4.74804C5.30518 4.20312 5.02895 3.76368 4.60457 3.5C5.02643 3.23633 5.30518 2.79394 5.30518 2.25195C5.30518 1.30274 4.67738 0.590813 3.78844 0.590813C2.71868 0.590813 1.64642 1.61914 0.76249 3.28613C0.729844 3.35058 0.69469 3.43848 0.69469 3.5Z" fill="#F5DDEF"/>
</g>
<defs>
<clipPath id="clip0_1086_1765">
<rect width="7" height="6" fill="white" transform="matrix(0 1 -1 0 6 0)"/>
</clipPath>
</defs>
</svg>
