<svg width="4" height="5" viewBox="0 0 4 5" fill="none" xmlns="http://www.w3.org/2000/svg">
<g clip-path="url(#clip0_1086_1554)">
<path d="M2.17938 3.96349C2.20243 3.95434 2.2296 3.92498 2.2473 3.9007C2.72282 3.2383 2.93787 2.59307 2.76278 2.09744C2.61729 1.68559 2.24786 1.50061 1.89228 1.64178C1.68816 1.72283 1.56876 1.91616 1.53945 2.152C1.37163 1.99576 1.16029 1.93241 0.95727 2.01302C0.601703 2.1542 0.437774 2.55094 0.583268 2.9628C0.758356 3.45843 1.31906 3.80228 2.08817 3.96388C2.11766 3.96942 2.15634 3.97264 2.17938 3.96349Z" fill="#ECC5D0"/>
</g>
<defs>
<clipPath id="clip0_1086_1554">
<rect width="2.82126" height="2.94822" fill="white" transform="matrix(0.929422 -0.369018 0.333091 0.942895 0 2.02606)"/>
</clipPath>
</defs>
</svg>
