<svg width="6" height="6" viewBox="0 0 6 6" fill="none" xmlns="http://www.w3.org/2000/svg">
<g clip-path="url(#clip0_1086_1574)">
<path d="M3 0.694759C3.05273 0.694759 3.12807 0.729912 3.1808 0.762559C4.60462 1.65904 5.49359 2.71875 5.49359 3.78851C5.49359 4.67745 4.88337 5.30524 4.06974 5.30524C3.60268 5.30524 3.22601 5.02902 3 4.60464C2.77399 5.0265 2.3948 5.30524 1.93024 5.30524C1.11663 5.30524 0.506409 4.67745 0.506409 3.78851C0.506409 2.71875 1.38783 1.64649 2.81668 0.762559C2.87192 0.729912 2.94726 0.694759 3 0.694759Z" fill="#F5DDEF"/>
</g>
<defs>
<clipPath id="clip0_1086_1574">
<rect width="6" height="6" fill="white" transform="matrix(1 0 0 -1 0 6)"/>
</clipPath>
</defs>
</svg>
