<svg width="4" height="5" viewBox="0 0 4 5" fill="none" xmlns="http://www.w3.org/2000/svg">
<g clip-path="url(#clip0_1086_1552)">
<path d="M2.03229 3.89156C2.05805 3.88559 2.09108 3.85885 2.11335 3.83597C2.71301 3.21043 3.03397 2.56097 2.91965 2.00703C2.82465 1.54671 2.4595 1.29076 2.06209 1.38294C1.83395 1.43585 1.67949 1.62156 1.61445 1.86693C1.45897 1.67408 1.24397 1.5727 1.01706 1.62533C0.619654 1.71751 0.388685 2.11173 0.483683 2.57205C0.598005 3.126 1.14312 3.58138 1.9355 3.87722C1.96597 3.88787 2.00653 3.89754 2.03229 3.89156Z" fill="#ECC5D0"/>
</g>
<defs>
<clipPath id="clip0_1086_1552">
<rect width="3.00848" height="3.17243" fill="white" transform="matrix(0.974138 -0.225952 0.202117 0.979361 0 1.48425)"/>
</clipPath>
</defs>
</svg>
