<svg width="5" height="6" viewBox="0 0 5 6" fill="none" xmlns="http://www.w3.org/2000/svg">
<g clip-path="url(#clip0_1086_1550)">
<path d="M2.39845 4.53493C2.43337 4.53059 2.48052 4.49971 2.5129 4.47245C3.38602 3.72592 3.89232 2.90886 3.80923 2.15794C3.74019 1.53394 3.28738 1.1435 2.74866 1.2105C2.4394 1.24896 2.21145 1.47387 2.09477 1.79038C1.91236 1.51286 1.63964 1.34842 1.33204 1.38667C0.793326 1.45367 0.438043 1.9446 0.507088 2.56859C0.590176 3.31951 1.25707 3.99961 2.2718 4.50244C2.31092 4.5208 2.36354 4.53928 2.39845 4.53493Z" fill="#ECC5D0"/>
</g>
<defs>
<clipPath id="clip0_1086_1550">
<rect width="4.00336" height="4.23743" fill="white" transform="matrix(0.992356 -0.12341 0.109978 0.993934 0 1.05792)"/>
</clipPath>
</defs>
</svg>
