<svg width="6" height="7" viewBox="0 0 6 7" fill="none" xmlns="http://www.w3.org/2000/svg">
<g clip-path="url(#clip0_1086_1950)">
<path d="M5.30531 3.5C5.30531 3.43847 5.27016 3.35059 5.23751 3.28906C4.34102 1.62794 3.28132 0.590813 2.21156 0.590813C1.32262 0.590813 0.694824 1.30274 0.694824 2.25196C0.694824 2.79688 0.971049 3.23632 1.39543 3.5C0.973567 3.76367 0.694824 4.20606 0.694824 4.74805C0.694824 5.69726 1.32262 6.40919 2.21156 6.40919C3.28132 6.40919 4.35358 5.38086 5.23751 3.71387C5.27016 3.64942 5.30531 3.56152 5.30531 3.5Z" fill="#F5DDEF"/>
</g>
<defs>
<clipPath id="clip0_1086_1950">
<rect width="7" height="6" fill="white" transform="matrix(0 -1 1 0 0 7)"/>
</clipPath>
</defs>
</svg>
