<svg width="3" height="2" viewBox="0 0 3 2" fill="none" xmlns="http://www.w3.org/2000/svg">
<g clip-path="url(#clip0_1086_1745)">
<path d="M1.93009 1.29329C1.93654 1.28695 1.94175 1.27335 1.9445 1.26278C2.01682 0.975549 2.0053 0.731455 1.88403 0.592895C1.78326 0.477756 1.63754 0.469778 1.53814 0.56756C1.48107 0.623692 1.46636 0.704739 1.48686 0.786868C1.41142 0.759388 1.3335 0.768855 1.27674 0.824687C1.17734 0.922467 1.17395 1.07712 1.27472 1.19226C1.39599 1.33082 1.62524 1.36377 1.90001 1.30654C1.91046 1.30413 1.92365 1.29963 1.93009 1.29329Z" fill="#ECC5D0"/>
</g>
<defs>
<clipPath id="clip0_1086_1745">
<rect width="1.02826" height="1.03276" fill="white" transform="matrix(0.712903 -0.701263 0.658597 0.752496 0.962158 0.966675)"/>
</clipPath>
</defs>
</svg>
