<svg width="3" height="4" viewBox="0 0 3 4" fill="none" xmlns="http://www.w3.org/2000/svg">
<g clip-path="url(#clip0_1086_1930)">
<path d="M1.85838 2.30231C1.87248 2.29118 1.88562 2.26532 1.89322 2.24493C2.09547 1.69035 2.12222 1.20238 1.90928 0.899149C1.73233 0.647172 1.44421 0.597992 1.22667 0.769688C1.10179 0.868251 1.05606 1.02604 1.08011 1.19402C0.935704 1.12214 0.778833 1.12314 0.654622 1.22118C0.437083 1.39287 0.39889 1.6996 0.575837 1.95157C0.788775 2.2548 1.23788 2.37274 1.79587 2.32177C1.81714 2.31937 1.84428 2.31343 1.85838 2.30231Z" fill="#ECC5D0"/>
</g>
<defs>
<clipPath id="clip0_1086_1930">
<rect width="2.04371" height="2.0782" fill="white" transform="matrix(0.784967 -0.619538 0.574689 0.818372 0 1.43158)"/>
</clipPath>
</defs>
</svg>
