<svg width="3" height="2" viewBox="0 0 3 2" fill="none" xmlns="http://www.w3.org/2000/svg">
<g clip-path="url(#clip0_1086_1932)">
<path d="M1.92985 1.29329C1.93629 1.28695 1.94151 1.27335 1.94425 1.26278C2.01658 0.975549 2.00506 0.731455 1.88379 0.592895C1.78302 0.477756 1.6373 0.469778 1.53789 0.56756C1.48083 0.623692 1.46612 0.704739 1.48662 0.786868C1.41118 0.759388 1.33325 0.768855 1.2765 0.824687C1.17709 0.922467 1.17371 1.07712 1.27448 1.19226C1.39575 1.33082 1.62499 1.36377 1.89976 1.30654C1.91022 1.30413 1.92341 1.29963 1.92985 1.29329Z" fill="#ECC5D0"/>
</g>
<defs>
<clipPath id="clip0_1086_1932">
<rect width="1.02826" height="1.03276" fill="white" transform="matrix(0.712903 -0.701263 0.658597 0.752496 0.961914 0.966675)"/>
</clipPath>
</defs>
</svg>
