<svg width="4" height="5" viewBox="0 0 4 5" fill="none" xmlns="http://www.w3.org/2000/svg">
<g clip-path="url(#clip0_1083_156)">
<path d="M2.03223 3.89156C2.05798 3.88559 2.09102 3.85885 2.11329 3.83597C2.71295 3.21043 3.03391 2.56097 2.91959 2.00703C2.82459 1.54671 2.45944 1.29076 2.06203 1.38294C1.83389 1.43585 1.67943 1.62156 1.61439 1.86693C1.45891 1.67408 1.24391 1.5727 1.017 1.62533C0.619593 1.71751 0.388624 2.11173 0.483622 2.57205C0.597944 3.126 1.14306 3.58138 1.93544 3.87722C1.96591 3.88787 2.00647 3.89754 2.03223 3.89156Z" fill="#ECC5D0"/>
</g>
<defs>
<clipPath id="clip0_1083_156">
<rect width="3.00848" height="3.17243" fill="white" transform="matrix(0.974138 -0.225952 0.202117 0.979361 0 1.48425)"/>
</clipPath>
</defs>
</svg>
