<svg width="4" height="5" viewBox="0 0 4 5" fill="none" xmlns="http://www.w3.org/2000/svg">
<g clip-path="url(#clip0_1086_1926)">
<path d="M2.03247 3.89156C2.05823 3.88559 2.09127 3.85885 2.11354 3.83597C2.71319 3.21043 3.03416 2.56097 2.91983 2.00703C2.82484 1.54671 2.45968 1.29076 2.06227 1.38294C1.83414 1.43585 1.67967 1.62156 1.61463 1.86693C1.45916 1.67408 1.24416 1.5727 1.01724 1.62533C0.619838 1.71751 0.388868 2.11173 0.483866 2.57205C0.598188 3.126 1.1433 3.58138 1.93568 3.87722C1.96615 3.88787 2.00671 3.89754 2.03247 3.89156Z" fill="#ECC5D0"/>
</g>
<defs>
<clipPath id="clip0_1086_1926">
<rect width="3.00848" height="3.17243" fill="white" transform="matrix(0.974138 -0.225952 0.202117 0.979361 0 1.48425)"/>
</clipPath>
</defs>
</svg>
