<svg width="6" height="7" viewBox="0 0 6 7" fill="none" xmlns="http://www.w3.org/2000/svg">
<g clip-path="url(#clip0_1086_1576)">
<path d="M5.30525 3.5C5.30525 3.43847 5.2701 3.35059 5.23745 3.28906C4.34096 1.62794 3.28126 0.590813 2.2115 0.590813C1.32256 0.590813 0.694763 1.30274 0.694763 2.25196C0.694763 2.79688 0.970988 3.23632 1.39537 3.5C0.973506 3.76367 0.694763 4.20606 0.694763 4.74805C0.694763 5.69726 1.32256 6.40919 2.2115 6.40919C3.28126 6.40919 4.35352 5.38086 5.23745 3.71387C5.2701 3.64942 5.30525 3.56152 5.30525 3.5Z" fill="#F5DDEF"/>
</g>
<defs>
<clipPath id="clip0_1086_1576">
<rect width="7" height="6" fill="white" transform="matrix(0 -1 1 0 0 7)"/>
</clipPath>
</defs>
</svg>
