<svg width="4" height="5" viewBox="0 0 4 5" fill="none" xmlns="http://www.w3.org/2000/svg">
<g clip-path="url(#clip0_1086_1928)">
<path d="M2.17932 3.96349C2.20237 3.95434 2.22954 3.92498 2.24724 3.9007C2.72275 3.2383 2.93781 2.59307 2.76272 2.09744C2.61723 1.68559 2.24779 1.50061 1.89222 1.64178C1.6881 1.72283 1.5687 1.91616 1.53939 2.152C1.37157 1.99576 1.16023 1.93241 0.957209 2.01302C0.601642 2.1542 0.437713 2.55094 0.583207 2.9628C0.758295 3.45843 1.319 3.80228 2.08811 3.96388C2.11759 3.96942 2.15627 3.97264 2.17932 3.96349Z" fill="#ECC5D0"/>
</g>
<defs>
<clipPath id="clip0_1086_1928">
<rect width="2.82126" height="2.94822" fill="white" transform="matrix(0.929422 -0.369018 0.333091 0.942895 0 2.02606)"/>
</clipPath>
</defs>
</svg>
