<svg width="5" height="6" viewBox="0 0 5 6" fill="none" xmlns="http://www.w3.org/2000/svg">
<g clip-path="url(#clip0_1083_154)">
<path d="M2.39833 4.53493C2.43325 4.53059 2.4804 4.49971 2.51278 4.47245C3.3859 3.72592 3.8922 2.90885 3.80911 2.15793C3.74006 1.53394 3.28726 1.1435 2.74854 1.2105C2.43928 1.24896 2.21133 1.47387 2.09465 1.79038C1.91224 1.51286 1.63952 1.34842 1.33192 1.38667C0.793204 1.45366 0.437921 1.94459 0.506966 2.56859C0.590054 3.31951 1.25695 3.99961 2.27168 4.50243C2.3108 4.5208 2.36341 4.53927 2.39833 4.53493Z" fill="#ECC5D0"/>
</g>
<defs>
<clipPath id="clip0_1083_154">
<rect width="4.00336" height="4.23743" fill="white" transform="matrix(0.992356 -0.12341 0.109978 0.993934 0 1.05792)"/>
</clipPath>
</defs>
</svg>
