<svg width="30" height="30" viewBox="0 0 30 30" fill="none" xmlns="http://www.w3.org/2000/svg">
<path d="M15 0C14.4916 0 13.1411 0 13.1411 1.31462V11.1046C13.1411 12.4192 14.4916 12.4192 15 12.4192C15.5084 12.4192 16.859 12.4192 16.859 11.1046V1.31462C16.859 0 15.5084 0 15 0Z" fill="#EDE3E3"/>
<path d="M26.6212 9.23163C25.3289 7.17367 23.5133 5.46718 21.3711 4.29669C21.2958 4.25547 21.1797 4.20631 21.0552 4.20631C20.95 4.20631 20.6071 4.24879 20.6071 4.79507V7.4713C20.6071 7.9344 20.9066 8.16089 21.0505 8.26974L21.0822 8.29391C23.6441 10.2956 25.1738 13.294 25.1738 16.3144C25.1738 21.9242 20.6099 26.4881 15.0001 26.4881C9.39042 26.4881 4.82644 21.9241 4.82644 16.3144C4.82644 13.3439 6.31956 10.3744 8.82072 8.37091C8.95491 8.26331 9.39326 7.86718 9.39326 7.2872V4.90836C9.39326 4.30405 9.01645 4.25706 8.90099 4.25706C8.71689 4.25706 8.53471 4.34736 8.38062 4.43573C4.02206 6.93639 1.31439 11.4881 1.31439 16.3144C1.31439 23.8607 7.45376 30 15 30C22.5462 30 28.6856 23.8606 28.6856 16.3144C28.6856 13.8314 27.9717 11.3823 26.6212 9.23163Z" fill="#EDE3E3"/>
</svg>
