<svg width="30" height="30" viewBox="0 0 30 30" fill="none" xmlns="http://www.w3.org/2000/svg">
<path d="M15 0C14.4916 0 13.141 0 13.141 1.31462V11.1046C13.141 12.4192 14.4916 12.4192 15 12.4192C15.5084 12.4192 16.859 12.4192 16.859 11.1046V1.31462C16.859 0 15.5084 0 15 0Z" fill="#EDE3E3"/>
<path d="M26.6211 9.23163C25.3288 7.17367 23.5133 5.46718 21.371 4.29669C21.2957 4.25547 21.1797 4.20631 21.0551 4.20631C20.9499 4.20631 20.607 4.24879 20.607 4.79507V7.4713C20.607 7.9344 20.9065 8.16089 21.0504 8.26974L21.0821 8.29391C23.644 10.2956 25.1737 13.294 25.1737 16.3144C25.1737 21.9242 20.6098 26.4881 15.0001 26.4881C9.39036 26.4881 4.82638 21.9241 4.82638 16.3144C4.82638 13.3439 6.3195 10.3744 8.82066 8.37091C8.95485 8.26331 9.3932 7.86718 9.3932 7.2872V4.90836C9.3932 4.30405 9.01639 4.25706 8.90093 4.25706C8.71683 4.25706 8.53465 4.34736 8.38056 4.43573C4.022 6.93639 1.31433 11.4881 1.31433 16.3144C1.31433 23.8607 7.4537 30 14.9999 30C22.5461 30 28.6855 23.8606 28.6855 16.3144C28.6856 13.8314 27.9717 11.3823 26.6211 9.23163Z" fill="#EDE3E3"/>
</svg>
