<svg width="48" height="25" viewBox="0 0 48 25" fill="none" xmlns="http://www.w3.org/2000/svg">
<path d="M0 6C0 2.68629 2.68629 0 6 0H36.5699C38.9567 0 41.1166 1.41475 42.0702 3.60283L45.9844 12.5839L47.4301 16.2864C48.9663 20.2208 46.0647 24.4688 41.841 24.4688H6C2.68629 24.4688 0 21.7825 0 18.4688V6Z" fill="#2E2E2E"/>
<path d="M0 6C0 2.68629 2.68629 0 6 0H36.5699C38.9567 0 41.1166 1.41475 42.0702 3.60283L45.9844 12.5839L47.4301 16.2864C48.9663 20.2208 46.0647 24.4688 41.841 24.4688H6C2.68629 24.4688 0 21.7825 0 18.4688V6Z" fill="#FFB6E6"/>
</svg>
