<svg width="7" height="7" viewBox="0 0 7 7" fill="none" xmlns="http://www.w3.org/2000/svg">
<path d="M4.58336 1.1609C4.49658 0.586186 3.72506 0.458273 3.45746 0.974238L2.99518 1.86555C2.91539 2.01938 2.74563 2.10434 2.57467 2.076L1.58414 1.91177C1.01073 1.81671 0.650667 2.51093 1.05868 2.92488L1.76352 3.63996C1.88516 3.76338 1.91351 3.95109 1.83372 4.10492L1.37144 4.99623C1.10384 5.51219 1.65282 6.06916 2.17259 5.80903L3.07048 5.35967C3.22545 5.28211 3.41273 5.31316 3.53438 5.43658L4.23921 6.15166C4.64723 6.56561 5.34658 6.21561 5.2598 5.64089L5.1099 4.64809C5.08402 4.47674 5.17143 4.30822 5.32639 4.23066L6.22428 3.7813C6.74406 3.52117 6.6273 2.74789 6.05389 2.65283L5.06336 2.4886C4.8924 2.46026 4.75913 2.32506 4.73326 2.15371L4.58336 1.1609Z" fill="#FFD74A" stroke="#B1B1B1" stroke-width="0.2"/>
</svg>
