<svg width="14" height="15" viewBox="0 0 14 15" fill="none" xmlns="http://www.w3.org/2000/svg">
<path d="M6.95219 1.35319C6.95794 1.33439 6.9651 1.32883 6.96874 1.32631C6.97477 1.32213 6.98556 1.31781 7 1.31781C7.01444 1.31781 7.02524 1.32213 7.03126 1.32631C7.0349 1.32883 7.04206 1.33439 7.04781 1.35319L8.37486 5.69268C8.47129 6.008 8.76234 6.22336 9.09208 6.22336L13.4357 6.22336C13.4541 6.22336 13.4616 6.22818 13.4655 6.23115C13.4714 6.23565 13.4786 6.24428 13.483 6.25721C13.4874 6.27015 13.487 6.28136 13.4851 6.28855C13.4838 6.29328 13.4808 6.30171 13.4662 6.31294L9.91129 9.05718C9.66422 9.24791 9.5611 9.57172 9.65237 9.8702L11.0003 14.2779C11.0059 14.2962 11.0032 14.3048 11.0016 14.3091C10.9989 14.316 10.9925 14.3256 10.9809 14.3336C10.9693 14.3417 10.9581 14.3443 10.9507 14.3443C10.9461 14.3443 10.9371 14.3438 10.9219 14.3321L7.4583 11.6583C7.18831 11.4499 6.81169 11.4499 6.5417 11.6583L3.0781 14.3321C3.06291 14.3438 3.0539 14.3443 3.04929 14.3443C3.04192 14.3443 3.03074 14.3417 3.0191 14.3336C3.00746 14.3256 3.00107 14.316 2.99844 14.3091C2.99679 14.3048 2.99412 14.2962 2.99973 14.2779L4.34763 9.8702C4.4389 9.57172 4.33578 9.24791 4.08871 9.05719L3.87484 9.33424L4.08871 9.05718L0.53376 6.31294C0.519222 6.30171 0.516197 6.29328 0.514922 6.28855C0.512985 6.28137 0.512578 6.27015 0.51699 6.25722C0.521401 6.24428 0.528577 6.23565 0.534499 6.23115C0.538398 6.22818 0.545946 6.22336 0.564312 6.22336L4.90793 6.22336C5.23766 6.22336 5.52871 6.008 5.62514 5.69268L6.95219 1.35319Z" stroke="#FFD74A" stroke-width="0.7"/>
</svg>
