<svg width="8" height="8" viewBox="0 0 8 8" fill="none" xmlns="http://www.w3.org/2000/svg">
<path d="M4.87741 2.49828L4.68071 1.10815C4.59727 0.518501 3.80793 0.378855 3.55063 0.908227L2.94404 2.15624C2.86761 2.3135 2.69709 2.39999 2.52389 2.36935L1.1628 2.12855C0.599275 2.02886 0.244345 2.70208 0.636566 3.12671L1.64994 4.22379C1.76396 4.34723 1.79158 4.52735 1.71927 4.67611L1.07343 6.00489C0.819258 6.52782 1.38922 7.08389 1.89987 6.81118L3.06315 6.18994C3.22208 6.10507 3.42002 6.14009 3.54477 6.27515L4.45794 7.26375C4.85879 7.69771 5.56643 7.36767 5.48401 6.78519L5.27457 5.3051C5.25113 5.1394 5.33173 4.97843 5.47699 4.90085L6.76793 4.21144C7.26758 3.94461 7.13525 3.18517 6.57173 3.08547L5.21063 2.84468C5.03743 2.81403 4.90219 2.67345 4.87741 2.49828Z" fill="#FFD74A" stroke="#B1B1B1" stroke-width="0.2"/>
</svg>
