<svg width="16" height="16" viewBox="0 0 16 16" fill="none" xmlns="http://www.w3.org/2000/svg">
<path d="M7.60717 0.703862C7.61291 0.685004 7.62008 0.67945 7.62371 0.676934C7.62973 0.672763 7.64053 0.668426 7.655 0.668426C7.66947 0.668426 7.68028 0.672763 7.6863 0.676934C7.68993 0.679451 7.69709 0.685005 7.70283 0.703863L9.21856 5.68176L9.55339 5.57981L9.21857 5.68176C9.31471 5.99751 9.60598 6.2133 9.93604 6.2133H14.8936C14.9119 6.2133 14.9194 6.21811 14.9234 6.22108C14.9293 6.22558 14.9365 6.2342 14.9409 6.24711C14.9453 6.26001 14.9449 6.27122 14.943 6.2784C14.9417 6.28315 14.9387 6.29158 14.9242 6.30281L10.8697 9.44617C10.6238 9.63686 10.5211 9.95964 10.6118 10.2574L12.1498 15.3083C12.1554 15.3267 12.1527 15.3353 12.151 15.3396C12.1484 15.3465 12.142 15.356 12.1303 15.3641C12.1187 15.3721 12.1075 15.3747 12.1001 15.3747C12.0955 15.3747 12.0865 15.3742 12.0713 15.3624L8.11454 12.2948C7.84406 12.0851 7.46594 12.0851 7.19547 12.2948L3.2387 15.3624C3.22352 15.3742 3.21451 15.3747 3.20991 15.3747C3.20254 15.3747 3.19135 15.3721 3.17969 15.3641C3.16802 15.356 3.16161 15.3465 3.15897 15.3396C3.15732 15.3353 3.15464 15.3267 3.16023 15.3083L4.6982 10.2574C4.78886 9.95964 4.68622 9.63686 4.44026 9.44617L0.385802 6.30281C0.371319 6.29158 0.368301 6.28315 0.36703 6.27841C0.365103 6.27122 0.364714 6.26001 0.369131 6.24711C0.373548 6.2342 0.380721 6.22558 0.386647 6.22108C0.39056 6.21811 0.398111 6.2133 0.416437 6.2133H5.37396C5.70403 6.2133 5.9953 5.99751 6.09144 5.68176L7.60717 0.703862Z" stroke="#FFD74A" stroke-width="0.7"/>
</svg>
