<svg width="6" height="7" viewBox="0 0 6 7" fill="none" xmlns="http://www.w3.org/2000/svg">
<path d="M2.51963 0.663218C2.65875 0.181535 3.34125 0.181534 3.48037 0.663217L3.79372 1.74816C3.85551 1.96213 4.05137 2.10942 4.27408 2.10942H5.40243C5.87245 2.10942 6.08278 2.69911 5.71886 2.99656L4.70859 3.82231C4.55361 3.94899 4.48911 4.15588 4.54465 4.34819L4.9061 5.59968C5.0422 6.0709 4.48907 6.43596 4.10931 6.12555L3.31643 5.47748C3.13231 5.327 2.86769 5.327 2.68357 5.47748L1.89069 6.12555C1.51093 6.43596 0.9578 6.0709 1.0939 5.59968L1.45535 4.34819C1.51089 4.15588 1.44639 3.94899 1.29141 3.82231L0.281138 2.99656C-0.0827797 2.69911 0.127553 2.10942 0.597568 2.10942H1.72592C1.94863 2.10942 2.14449 1.96213 2.20628 1.74816L2.51963 0.663218Z" fill="#FFD74A"/>
</svg>
