<svg width="16" height="16" viewBox="0 0 16 16" fill="none" xmlns="http://www.w3.org/2000/svg">
<path d="M7.60711 0.703862C7.61285 0.685004 7.62002 0.67945 7.62365 0.676934C7.62966 0.672763 7.64047 0.668426 7.65494 0.668426C7.66941 0.668426 7.68022 0.672763 7.68623 0.676934C7.68986 0.679451 7.69703 0.685005 7.70277 0.703863L9.2185 5.68176L9.55333 5.57981L9.2185 5.68176C9.31465 5.99751 9.60592 6.2133 9.93598 6.2133H14.8935C14.9118 6.2133 14.9194 6.21811 14.9233 6.22108C14.9292 6.22558 14.9364 6.2342 14.9408 6.24711C14.9452 6.26001 14.9448 6.27122 14.9429 6.2784C14.9416 6.28315 14.9386 6.29158 14.9241 6.30281L10.8697 9.44617C10.6237 9.63686 10.5211 9.95964 10.6117 10.2574L12.1497 15.3083C12.1553 15.3267 12.1526 15.3353 12.151 15.3396C12.1483 15.3465 12.1419 15.356 12.1303 15.3641C12.1186 15.3721 12.1074 15.3747 12.1 15.3747C12.0954 15.3747 12.0864 15.3742 12.0712 15.3624L8.11448 12.2948C7.844 12.0851 7.46588 12.0851 7.19541 12.2948L3.23864 15.3624C3.22346 15.3742 3.21445 15.3747 3.20985 15.3747C3.20248 15.3747 3.19129 15.3721 3.17963 15.3641C3.16796 15.356 3.16155 15.3465 3.15891 15.3396C3.15726 15.3353 3.15457 15.3267 3.16017 15.3083L4.69814 10.2574C4.7888 9.95964 4.68616 9.63686 4.4402 9.44617L0.385741 6.30281C0.371258 6.29158 0.36824 6.28315 0.366969 6.27841C0.365042 6.27122 0.364653 6.26001 0.36907 6.24711C0.373487 6.2342 0.38066 6.22558 0.386586 6.22108C0.390499 6.21811 0.39805 6.2133 0.416376 6.2133H5.3739C5.70397 6.2133 5.99523 5.99751 6.09138 5.68176L7.60711 0.703862Z" stroke="#FFD74A" stroke-width="0.7"/>
</svg>
