<svg width="7" height="7" viewBox="0 0 7 7" fill="none" xmlns="http://www.w3.org/2000/svg">
<path d="M4.3718 1.84091L3.78978 0.953341C3.46925 0.464541 2.70957 0.709252 2.69847 1.30488L2.67832 2.38642C2.67502 2.56348 2.55889 2.72091 2.39191 2.7747L1.36854 3.10435C0.822289 3.28031 0.787593 4.05623 1.31724 4.25147L2.37706 4.64216C2.53175 4.69918 2.63243 4.84945 2.62928 5.01862L2.60774 6.17493C2.59675 6.76453 3.33504 6.99963 3.67955 6.51623L4.28605 5.66522C4.39246 5.51591 4.58185 5.45491 4.74838 5.51629L5.69755 5.86619C6.2367 6.06494 6.72782 5.43382 6.41053 4.94996L5.78828 4.00103C5.69725 3.86221 5.70244 3.67783 5.80128 3.53914L6.47849 2.58892C6.81692 2.11404 6.38254 1.48923 5.8363 1.66518L4.81292 1.99484C4.64594 2.04863 4.46708 1.98621 4.3718 1.84091Z" fill="#FFD74A" stroke="#B1B1B1" stroke-width="0.2"/>
</svg>
