<svg width="8" height="8" viewBox="0 0 8 8" fill="none" xmlns="http://www.w3.org/2000/svg">
<path d="M4.68095 1.10815C4.59751 0.518502 3.80817 0.378855 3.55088 0.908227L2.94429 2.15624C2.86785 2.3135 2.69733 2.39999 2.52413 2.36935L1.16304 2.12855C0.599519 2.02886 0.244589 2.70208 0.63681 3.12671L1.65018 4.22379C1.76421 4.34723 1.79182 4.52735 1.71952 4.67611L1.07367 6.00489C0.819502 6.52782 1.38946 7.08389 1.90011 6.81118L3.0634 6.18994C3.22232 6.10507 3.42026 6.14009 3.54502 6.27515L4.45818 7.26375C4.85904 7.69771 5.56667 7.36767 5.48425 6.78519L5.27482 5.3051C5.25137 5.1394 5.33198 4.97843 5.47724 4.90085L6.76818 4.21144C7.26783 3.94461 7.13549 3.18517 6.57197 3.08547L5.21088 2.84468C5.03768 2.81403 4.90244 2.67345 4.87765 2.49828L4.68095 1.10815Z" fill="#FFD74A" stroke="#B1B1B1" stroke-width="0.2"/>
</svg>
