<svg width="8" height="7" viewBox="0 0 8 7" fill="none" xmlns="http://www.w3.org/2000/svg">
<path d="M3.54666 0.75251C3.69053 0.280036 4.35943 0.280037 4.5033 0.752512L4.90943 2.08633C4.97353 2.29683 5.16771 2.44068 5.38775 2.44068H6.76768C7.24415 2.44068 7.4506 3.0439 7.07404 3.33583L5.90298 4.24374C5.73901 4.37086 5.67058 4.58605 5.73102 4.78454L6.16496 6.20967C6.30698 6.6761 5.76562 7.04921 5.38029 6.75047L4.33134 5.93724C4.15102 5.79744 3.89894 5.79744 3.71862 5.93723L2.66968 6.75047C2.28434 7.04921 1.74298 6.6761 1.885 6.20967L2.31894 4.78454C2.37938 4.58605 2.31096 4.37087 2.14698 4.24374L0.975923 3.33583C0.599367 3.0439 0.805809 2.44068 1.28228 2.44068H2.66221C2.88225 2.44068 3.07643 2.29683 3.14053 2.08633L3.54666 0.75251Z" fill="#FFD74A"/>
</svg>
