<svg width="8" height="8" viewBox="0 0 8 8" fill="none" xmlns="http://www.w3.org/2000/svg">
<path d="M4.68074 1.10815C4.5973 0.518502 3.80796 0.378855 3.55066 0.908227L2.94408 2.15624C2.86764 2.3135 2.69712 2.39999 2.52392 2.36935L1.16283 2.12855C0.599305 2.02886 0.244376 2.70208 0.636596 3.12671L1.64997 4.22379C1.764 4.34723 1.79161 4.52735 1.7193 4.67611L1.07346 6.00489C0.819289 6.52782 1.38925 7.08389 1.8999 6.81118L3.06318 6.18994C3.22211 6.10507 3.42005 6.14009 3.54481 6.27515L4.45797 7.26375C4.85882 7.69771 5.56646 7.36767 5.48404 6.78519L5.2746 5.3051C5.25116 5.1394 5.33176 4.97843 5.47702 4.90085L6.76796 4.21144C7.26761 3.94461 7.13528 3.18517 6.57176 3.08547L5.21066 2.84468C5.03746 2.81403 4.90222 2.67345 4.87744 2.49828L4.68074 1.10815Z" fill="#FFD74A" stroke="#B1B1B1" stroke-width="0.2"/>
</svg>
