<svg width="8" height="7" viewBox="0 0 8 7" fill="none" xmlns="http://www.w3.org/2000/svg">
<path d="M3.54669 0.752755C3.69056 0.28028 4.35946 0.280281 4.50333 0.752756L4.90946 2.08657C4.97356 2.29707 5.16774 2.44093 5.38778 2.44093H6.76771C7.24418 2.44093 7.45063 3.04414 7.07407 3.33608L5.90301 4.24398C5.73904 4.37111 5.67061 4.5863 5.73105 4.78478L6.16499 6.20992C6.30702 6.67635 5.76565 7.04946 5.38032 6.75071L4.33137 5.93748C4.15105 5.79768 3.89897 5.79768 3.71866 5.93748L2.66971 6.75071C2.28437 7.04946 1.74301 6.67635 1.88503 6.20992L2.31897 4.78478C2.37941 4.5863 2.31099 4.37111 2.14701 4.24398L0.975954 3.33608C0.599397 3.04414 0.80584 2.44093 1.28231 2.44093H2.66224C2.88228 2.44093 3.07646 2.29707 3.14056 2.08657L3.54669 0.752755Z" fill="#FFD74A"/>
</svg>
