<svg width="47" height="46" viewBox="0 0 47 46" fill="none" xmlns="http://www.w3.org/2000/svg">
<g clip-path="url(#clip0_28_834)">
<path d="M45.2406 8.7069C44.5141 9.01905 43.7671 9.28251 43.0038 9.49639C43.9075 8.50645 44.5964 7.34165 45.017 6.06702C45.1113 5.78131 45.0135 5.46858 44.7711 5.28172C44.529 5.09472 44.1926 5.07232 43.926 5.22536C42.305 6.15662 40.5563 6.82588 38.7226 7.21723C36.8755 5.46887 34.3668 4.47388 31.7733 4.47388C26.2989 4.47388 21.845 8.78812 21.845 14.091C21.845 14.5086 21.8723 14.924 21.9263 15.3335C15.1331 14.7558 8.81755 11.5214 4.48067 6.36805C4.32612 6.18437 4.08801 6.08538 3.84424 6.10431C3.60032 6.12281 3.38116 6.25605 3.25793 6.46083C2.37833 7.9229 1.91331 9.59509 1.91331 11.2965C1.91331 13.6138 2.76741 15.8125 4.27614 17.5305C3.81739 17.3766 3.37221 17.1842 2.94733 16.9557C2.71922 16.8328 2.44083 16.8346 2.21422 16.9605C1.98745 17.0864 1.84528 17.3179 1.83931 17.5709C1.83827 17.6136 1.83827 17.6562 1.83827 17.6994C1.83827 21.1584 3.7601 24.2726 6.69834 25.9699C6.44592 25.9455 6.19364 25.9101 5.94301 25.8637C5.68462 25.8159 5.41891 25.9036 5.24466 26.0945C5.07011 26.2853 5.01238 26.5512 5.09279 26.794C6.18037 30.0831 8.98046 32.5025 12.3655 33.2401C9.55797 34.9435 6.34731 35.8358 2.97687 35.8358C2.2736 35.8358 1.5663 35.7957 0.874069 35.7164C0.530192 35.6768 0.201383 35.8735 0.0842709 36.1903C-0.0328412 36.5072 0.0912827 36.8605 0.383839 37.0422C4.7137 39.7315 9.72028 41.1529 14.862 41.1529C24.9701 41.1529 31.2934 36.5356 34.8179 32.6622C39.213 27.8323 41.7337 21.4393 41.7337 15.1227C41.7337 14.8588 41.7295 14.5923 41.7211 14.3267C43.4551 13.0612 44.948 11.5296 46.1629 9.76924C46.3474 9.50188 46.3274 9.14854 46.1137 8.90243C45.9002 8.65617 45.5443 8.57655 45.2406 8.7069Z" fill="url(#paint0_linear_28_834)"/>
</g>
<defs>
<linearGradient id="paint0_linear_28_834" x1="15.4569" y1="-2.57324" x2="33.7155" y2="41.1558" gradientUnits="userSpaceOnUse">
<stop offset="0.0416667" stop-color="#BEF3FF"/>
<stop offset="1" stop-color="#E3F5FF"/>
</linearGradient>
<clipPath id="clip0_28_834">
<rect width="46.2481" height="44.8" fill="white" transform="translate(0.0407715 0.41333)"/>
</clipPath>
</defs>
</svg>
