<svg width="49" height="46" viewBox="0 0 49 46" fill="none" xmlns="http://www.w3.org/2000/svg">
<path d="M14.6615 0.125784C12.3592 0.145851 10.4925 1.01162 9.00678 2.4312C7.25409 4.10574 6.08525 6.59108 5.72814 9.30771C5.01403 14.7412 7.45424 20.9359 14.2902 23.5215L13.5568 25.1998C6.86851 22.6701 3.8286 16.9835 3.67143 11.5313C1.86085 12.5847 0.792027 14.1535 0.298187 16.0329C-0.29922 18.3059 0.0137719 21.0292 1.12275 23.5791C3.3405 28.6791 8.56634 32.9683 15.561 32.0704L15.8284 33.8667C10.7392 34.5201 6.42265 32.7445 3.32256 29.8893C2.47234 31.4612 2.53992 33.0169 3.25403 34.5726C4.13763 36.4972 6.12196 38.3777 8.76867 39.768C13.6794 42.3476 20.7418 43.2146 26.8317 40.2618C26.2653 38.227 26.5551 35.8923 28.0146 33.5426C30.3831 29.7298 34.3537 28.7121 37.2317 29.7922C38.6708 30.3324 39.8475 31.3971 40.3476 32.8126C40.8478 34.2279 40.6433 35.944 39.5784 37.6898C38.3477 39.7071 36.0173 40.3922 34.2332 39.8438C33.3413 39.5695 32.5415 38.929 32.2646 38.014C31.9879 37.0989 32.2498 36.0397 33.0013 34.9785L34.6277 35.9752C34.0814 36.7464 34.0541 37.2432 34.1385 37.5231C34.2233 37.803 34.4347 37.9976 34.8425 38.1229C35.6583 38.3737 37.0831 38.1082 37.8836 36.796C38.7376 35.3962 38.8035 34.2578 38.493 33.3789C38.1826 32.5 37.4661 31.8323 36.5018 31.4704C34.573 30.7466 31.6896 31.2501 29.7029 34.4484C28.2403 36.8031 28.2039 38.8472 29.0021 40.5979L29.2955 41.022C29.275 41.0346 29.2541 41.0462 29.2336 41.0585C29.2603 41.1066 29.2871 41.1562 29.3149 41.2039C29.5178 41.5495 29.7549 41.8831 30.0256 42.2004C30.036 42.213 30.0475 42.2246 30.0582 42.2369C30.0994 42.2845 30.1426 42.3323 30.1854 42.3793C31.3856 43.7032 33.143 44.7425 35.1198 45.3149C37.6501 46.0475 40.5011 46.0076 42.9257 44.9514C45.3503 43.895 47.4036 41.852 48.421 38.3231C48.7676 37.1205 48.9508 36.0183 48.9946 34.9968C48.9957 34.9563 48.997 34.9162 48.9978 34.8756C49.0068 34.3813 48.9886 33.8824 48.939 33.3822C48.9352 33.3427 48.9303 33.3033 48.926 33.2639C48.9227 33.2378 48.9197 33.2112 48.9163 33.1851C48.5726 30.685 47.266 28.7104 45.3343 26.9386C42.2435 24.1041 37.4393 21.9328 32.532 19.753C27.6246 17.5731 22.6122 15.381 19.0908 12.225C15.7864 9.26322 13.8838 5.32437 14.8864 0.12559C14.8113 0.124621 14.7358 0.125203 14.6615 0.125784Z" fill="white"/>
</svg>
